<mxfile host="app.diagrams.net" modified="2023-06-30T14:50:03.526Z" agent="Mozilla/5.0 (Windows NT 10.0; Win64; x64) AppleWebKit/537.36 (KHTML, like Gecko) Chrome/114.0.0.0 Safari/537.36" version="21.5.2" etag="K2o5mOW6Luc-tO9ITSmZ" type="github">
  <diagram name="Page-1" id="Xw95-hLC9-1scv4UWebF">
    <mxGraphModel>
      <root>
        <mxCell id="0" />
        <mxCell id="1" parent="0" />
      </root>
    </mxGraphModel>
  </diagram>
</mxfile>
